<svg width="37" height="33" viewBox="0 0 37 33" fill="none" xmlns="http://www.w3.org/2000/svg">
<path fill-rule="evenodd" clip-rule="evenodd" d="M5.94248 3.65837H35.8057C35.843 3.65837 35.8836 3.65716 35.9266 3.65589C36.3634 3.64299 37.0468 3.6228 36.9836 4.77828C36.9056 5.23514 34.6873 15.9615 34.0376 19.1027V19.1028C33.9441 19.555 33.8831 19.8499 33.8657 19.9344C33.6193 21.129 32.8956 21.129 32.8956 21.129L10.6541 21.2036L8.50615 26.5792C8.03745 26.5045 7.69101 26.5045 7.20599 26.8778L9.26832 21.0543L3.93311 1.26923H1.71589C1.43872 2.16516 0.472645 2.04706 0.122236 1.41856C-0.154925 0.821273 0.0529205 0.223986 0.607256 0L4.21027 4.198e-07L4.2103 4.20074e-07C4.6953 6.2436e-06 4.97245 9.57666e-06 5.11102 0.522627L5.94248 3.65837ZM8.43687 33C9.92928 33 11.1391 31.7632 11.1391 30.2376C11.1391 28.7119 9.92928 27.4751 8.43687 27.4751C6.94446 27.4751 5.73463 28.7119 5.73463 30.2376C5.73463 31.7632 6.94446 33 8.43687 33ZM32.6185 30.2376C32.6185 31.7632 31.4087 33 29.9162 33C28.4239 33 27.214 31.7632 27.214 30.2376C27.214 28.7119 28.4239 27.4751 29.9162 27.4751C31.4087 27.4751 32.6185 28.7119 32.6185 30.2376ZM11.0698 27.9977H27.3526C26.9532 28.2217 26.676 28.6697 26.676 29.267H11.779C11.779 28.819 11.294 28.2217 11.0698 27.9977Z" fill="url(#paint0_linear)"/>
<defs>
<linearGradient id="paint0_linear" x1="-1.74855" y1="-0.597284" x2="26.909" y2="23.9216" gradientUnits="userSpaceOnUse">
<stop stop-color="#E78B05"/>
<stop offset="1" stop-color="#8F5BFE"/>
</linearGradient>
</defs>
</svg>
