<svg width="14" height="14" viewBox="0 0 14 14" fill="none" xmlns="http://www.w3.org/2000/svg">
<rect width="14" height="14" fill="#E5E5E5"/>
<g clip-path="url(#clip0)">
<path fill-rule="evenodd" clip-rule="evenodd" d="M2.2485 1.55204H13.5481C13.5622 1.55204 13.5776 1.55152 13.5938 1.55098C13.7591 1.54551 14.0177 1.53695 13.9938 2.02715C13.9643 2.22097 13.1249 6.77157 12.8791 8.10416V8.10423C12.8437 8.29605 12.8206 8.42116 12.814 8.45701C12.7208 8.9638 12.447 8.9638 12.447 8.9638L4.03128 8.99548L3.21854 11.276C3.0412 11.2443 2.91011 11.2443 2.72659 11.4027L3.50693 8.93213L1.48821 0.538461H0.649254C0.54438 0.918552 0.178839 0.86845 0.0462516 0.601813C-0.0586201 0.348419 0.020024 0.0950245 0.229773 0L1.59307 1.78097e-07L1.59308 1.78213e-07C1.7766 2.6488e-06 1.88147 4.06283e-06 1.9339 0.221721L2.2485 1.55204ZM3.19233 14C3.75702 14 4.2148 13.4753 4.2148 12.8281C4.2148 12.1808 3.75702 11.6561 3.19233 11.6561C2.62763 11.6561 2.16986 12.1808 2.16986 12.8281C2.16986 13.4753 2.62763 14 3.19233 14ZM12.3421 12.8281C12.3421 13.4753 11.8844 14 11.3197 14C10.755 14 10.2972 13.4753 10.2972 12.8281C10.2972 12.1808 10.755 11.6561 11.3197 11.6561C11.8844 11.6561 12.3421 12.1808 12.3421 12.8281ZM4.18858 11.8778H10.3496C10.1985 11.9729 10.0936 12.1629 10.0936 12.4163H4.45693C4.45693 12.2262 4.27341 11.9729 4.18858 11.8778Z" fill="url(#paint0_linear)"/>
</g>
<defs>
<linearGradient id="paint0_linear" x1="-0.661613" y1="-0.253393" x2="11.2078" y2="8.804" gradientUnits="userSpaceOnUse">
<stop stop-color="#E78B05"/>
<stop offset="1" stop-color="#8F5BFE"/>
</linearGradient>
<clipPath id="clip0">
<rect width="14" height="14" fill="white"/>
</clipPath>
</defs>
</svg>
