<svg width="28" height="20" viewBox="0 0 28 20" fill="none" xmlns="http://www.w3.org/2000/svg">
<path fill-rule="evenodd" clip-rule="evenodd" d="M4.4985 2.21719H27.1052C27.1334 2.21719 27.1642 2.21646 27.1967 2.21569C27.5274 2.20787 28.0447 2.19564 27.9969 2.89593C27.9378 3.17281 26.2585 9.67367 25.7668 11.5774V11.5775C25.6959 11.8515 25.6498 12.0302 25.6366 12.0814C25.4501 12.8054 24.9022 12.8054 24.9022 12.8054L8.06523 12.8507L6.43922 16.1086C6.08441 16.0633 5.82215 16.0633 5.45499 16.2896L7.01619 12.7602L2.9774 0.76923H1.29894C1.08912 1.31222 0.357796 1.24064 0.0925339 0.859732C-0.117279 0.497741 0.0400612 0.135749 0.459697 0L3.1872 2.54424e-07L3.18723 2.5459e-07C3.55438 3.784e-06 3.76419 5.80404e-06 3.86908 0.316744L4.4985 2.21719ZM6.38678 20C7.51654 20 8.4324 19.2504 8.4324 18.3258C8.4324 17.4012 7.51654 16.6516 6.38678 16.6516C5.25701 16.6516 4.34116 17.4012 4.34116 18.3258C4.34116 19.2504 5.25701 20 6.38678 20ZM24.6924 18.3258C24.6924 19.2504 23.7766 20 22.6468 20C21.5171 20 20.6012 19.2504 20.6012 18.3258C20.6012 17.4012 21.5171 16.6516 22.6468 16.6516C23.7766 16.6516 24.6924 17.4012 24.6924 18.3258ZM8.37994 16.9683H20.7061C20.4038 17.1041 20.194 17.3756 20.194 17.7376H8.91681C8.91681 17.4661 8.54965 17.1041 8.37994 16.9683Z" fill="#004158"/>
</svg>
